<svg width="81" height="63" viewBox="0 0 81 63" fill="none" xmlns="http://www.w3.org/2000/svg">
<mask id="mask0" mask-type="alpha" maskUnits="userSpaceOnUse" x="0" y="0" width="63" height="63">
<rect width="63" height="63" rx="10" fill="#03565C"/>
</mask>
<g mask="url(#mask0)">
<rect width="63" height="63" rx="10" fill="#03565C"/>
<path d="M10 40.5767H14.5384V30.7543C14.5384 28.9432 15.6889 27.7393 17.2017 27.7393C18.6932 27.7393 19.6946 28.7621 19.6946 30.3707V40.5767H24.0945V30.5838C24.0945 28.8899 25.0639 27.7393 26.7152 27.7393C28.1641 27.7393 29.2507 28.6449 29.2507 30.4666V40.5767H33.7784V29.5717C33.7784 26.0241 31.669 24 28.6222 24C26.2251 24 24.3608 25.2251 23.6896 27.1001H23.5192C22.9972 25.2038 21.3246 24 19.0767 24C16.8714 24 15.1989 25.1719 14.517 27.1001H14.3253V24.2131H10V40.5767Z" fill="white"/>
<path d="M40.4595 47C44.1313 47 46.0772 45.2358 47.0849 42.535L54 24.0218L48.7761 24L45.0579 36.2841H44.8726L41.1892 24H36L42.3822 41.2064L42.0927 41.9143C41.444 43.4825 40.2046 43.5587 38.4672 43.0578L37.3552 46.5208C38.0618 46.804 39.2085 47 40.4595 47Z" fill="white"/>
</g>
<path d="M75.5 62C78.5456 62 81 59.5387 81 56.5C81 53.4612 78.5388 51 75.5 51C72.4613 51 70 53.4612 70 56.5C70 59.5387 72.4613 62 75.5 62ZM75.5 60.5494C73.2656 60.5494 71.4575 58.7344 71.4575 56.5C71.4575 54.2656 73.2656 52.4506 75.5 52.4506C77.7413 52.4506 79.5494 54.2656 79.5494 56.5C79.5494 58.7412 77.7413 60.5494 75.5 60.5494ZM73.5131 58.975H74.8331V57.27H75.6787L76.4625 58.975H77.9063L76.9437 57.0225C77.4319 56.7475 77.755 56.2594 77.755 55.5787C77.755 54.5131 76.9575 53.9012 75.995 53.9012H73.5131V58.975ZM74.8331 56.3144V54.8775H75.665C76.0363 54.8775 76.3663 55.0769 76.3663 55.5787C76.3663 56.0669 76.0431 56.3144 75.6581 56.3144H74.8331Z" fill="#03565C"/>
</svg>
