<svg width="24" height="28" viewBox="0 0 24 28" fill="none" xmlns="http://www.w3.org/2000/svg">
<path d="M8 12.6667H5.33333V15.3334H8V12.6667ZM13.3333 12.6667H10.6667V15.3334H13.3333V12.6667ZM18.6667 12.6667H16V15.3334H18.6667V12.6667ZM21.3333 3.33341H20V0.666748H17.3333V3.33341H6.66667V0.666748H4V3.33341H2.66667C1.18667 3.33341 0.0133333 4.53341 0.0133333 6.00008L0 24.6667C0 26.1334 1.18667 27.3334 2.66667 27.3334H21.3333C22.8 27.3334 24 26.1334 24 24.6667V6.00008C24 4.53341 22.8 3.33341 21.3333 3.33341ZM21.3333 24.6667H2.66667V10.0001H21.3333V24.6667Z" fill="#8692A6"/>
</svg>
