<svg width="36" height="38" viewBox="0 0 36 38" fill="none" xmlns="http://www.w3.org/2000/svg">
<rect width="36" height="38" rx="6" fill="#D1E0E0"/>
<path d="M30.5489 22.4313C30.4685 22.0734 30.2691 21.7533 29.9832 21.5234C29.7098 21.3122 29.3822 21.1828 29.0383 21.1503C28.6944 21.1178 28.3483 21.1834 28.0402 21.3396L23.3594 23.6022C23.3395 23.4477 23.2966 23.2971 23.2321 23.1553C23.1089 22.918 22.9377 22.7089 22.7292 22.5414C22.5208 22.3739 22.2798 22.2517 22.0216 22.1824C21.9534 22.1697 21.8834 22.1697 21.8151 22.1824C19.4196 22.4652 19.1735 22.3323 17.9941 21.7383C17.6491 21.5687 17.222 21.3537 16.6592 21.1048C14.7897 20.2846 12.9598 20.8757 11.9105 21.3876V19.5549C11.9105 19.4049 11.8509 19.261 11.7448 19.1549C11.6387 19.0489 11.4948 18.9893 11.3448 18.9893H5.13109C4.98106 18.9893 4.83719 19.0489 4.73111 19.1549C4.62503 19.261 4.56543 19.4049 4.56543 19.5549V30.5852C4.56543 30.7352 4.62503 30.8791 4.73111 30.9852C4.83719 31.0913 4.98106 31.1509 5.13109 31.1509H11.3533C11.5033 31.1509 11.6472 31.0913 11.7533 30.9852C11.8594 30.8791 11.919 30.7352 11.919 30.5852V29.1711H19.3234C20.3958 29.1725 21.4502 28.8958 22.3836 28.3678L29.7371 24.2131C30.0438 24.0405 30.2877 23.7749 30.4336 23.4546C30.5795 23.1343 30.6199 22.776 30.5489 22.4313ZM10.7877 30.0196H5.69674V20.1206H10.7877V30.0196ZM29.1715 23.2317L21.818 27.3808C21.0574 27.8124 20.1979 28.0395 19.3234 28.0398H11.919V22.666C12.5553 22.2786 14.405 21.3339 16.2123 22.1287C16.7497 22.3662 17.1456 22.5642 17.4963 22.7396C18.8426 23.4155 19.3178 23.588 21.8236 23.3052C21.9883 23.3652 22.1265 23.4814 22.2139 23.6333C22.2737 23.832 22.2534 24.0462 22.1573 24.2301C21.7416 24.5299 20.6159 25.1493 18.4042 25.1493C18.2542 25.1493 18.1103 25.2089 18.0042 25.3149C17.8982 25.421 17.8386 25.5649 17.8386 25.7149C17.8386 25.8649 17.8982 26.0088 18.0042 26.1149C18.1103 26.221 18.2542 26.2806 18.4042 26.2806C20.9836 26.2806 22.3638 25.4971 22.904 25.0814L28.5408 22.3577C28.6548 22.2969 28.7835 22.2692 28.9125 22.2777C29.0414 22.2862 29.1654 22.3306 29.2705 22.4058C29.3609 22.4678 29.4261 22.5601 29.4543 22.666C29.4758 22.7783 29.4598 22.8945 29.4087 22.9967C29.3576 23.099 29.2742 23.1815 29.1715 23.2317Z" fill="#03565A"/>
<path d="M19.903 13.8505C19.5368 13.8812 19.1693 13.8093 18.8416 13.643C18.514 13.4767 18.2391 13.2224 18.0477 12.9087L17.103 13.5309C17.5391 14.2077 18.2117 14.6977 18.9895 14.9055V15.8784H20.1208V14.9592C21.0004 14.8093 21.9733 14.1814 22.0836 13.2877C22.2646 11.7944 21.0032 11.4154 20.5875 11.2881C20.1717 11.1608 19.8974 11.0929 19.6202 11.0222C18.8848 10.8356 18.6642 10.7677 18.4691 10.5047C18.4199 10.4397 18.3854 10.3649 18.3678 10.2853C18.3502 10.2057 18.35 10.1233 18.3673 10.0437C18.3915 9.93781 18.4374 9.83815 18.5022 9.751C18.5669 9.66385 18.6491 9.59111 18.7434 9.53739C19.0889 9.38553 19.4775 9.36343 19.838 9.47517C20.0807 9.53206 20.3098 9.63629 20.5122 9.78189C20.7146 9.92749 20.8863 10.1116 21.0174 10.3237L22.0016 9.758C21.7959 9.41419 21.524 9.11464 21.2016 8.87674C20.8792 8.63884 20.5128 8.46733 20.1236 8.37214V7.39355H18.9895V8.30143C18.6975 8.3318 18.4151 8.42335 18.1608 8.57012C17.9314 8.70487 17.7325 8.88583 17.5767 9.10151C17.4209 9.3172 17.3116 9.5629 17.2558 9.82305C17.2083 10.057 17.2107 10.2983 17.2628 10.5313C17.315 10.7643 17.4157 10.9836 17.5584 11.175C17.9996 11.7746 18.5624 11.9188 19.3374 12.1196C19.6032 12.1875 19.903 12.2639 20.2622 12.3713C20.9156 12.5693 21.0089 12.739 20.958 13.1491C20.924 13.4291 20.4036 13.7742 19.903 13.8505Z" fill="#03565A"/>
<path d="M19.5553 18.141C20.8419 18.141 22.0996 17.7595 23.1694 17.0447C24.2391 16.3299 25.0729 15.3139 25.5652 14.1253C26.0576 12.9366 26.1864 11.6287 25.9354 10.3668C25.6844 9.10498 25.0649 7.9459 24.1551 7.03615C23.2454 6.1264 22.0863 5.50685 20.8244 5.25586C19.5626 5.00486 18.2546 5.13368 17.066 5.62603C15.8773 6.11838 14.8614 6.95215 14.1466 8.0219C13.4318 9.09165 13.0503 10.3493 13.0503 11.6359C13.0503 13.3612 13.7356 15.0157 14.9556 16.2357C16.1755 17.4556 17.8301 18.141 19.5553 18.141ZM19.5553 6.26218C20.6182 6.26218 21.6571 6.57734 22.5408 7.16781C23.4245 7.75829 24.1133 8.59755 24.52 9.57947C24.9268 10.5614 25.0332 11.6419 24.8258 12.6843C24.6185 13.7267 24.1067 14.6842 23.3551 15.4357C22.6036 16.1873 21.6461 16.6991 20.6037 16.9064C19.5613 17.1137 18.4808 17.0073 17.4989 16.6006C16.517 16.1939 15.6777 15.5051 15.0872 14.6214C14.4968 13.7377 14.1816 12.6987 14.1816 11.6359C14.1816 10.2107 14.7478 8.84388 15.7555 7.83611C16.7633 6.82834 18.1301 6.26218 19.5553 6.26218Z" fill="#03565A"/>
</svg>
