<svg width="86" height="35" viewBox="0 0 86 35" fill="none" xmlns="http://www.w3.org/2000/svg">
<mask id="mask0_5003_10320" style="mask-type:alpha" maskUnits="userSpaceOnUse" x="0" y="0" width="35" height="35">
<rect width="35" height="35" rx="7.6087" fill="#03565C"/>
</mask>
<g mask="url(#mask0_5003_10320)">
<rect width="35" height="35" rx="7.6087" fill="white"/>
<path d="M5.55566 22.5433H8.07697V17.0864C8.07697 16.0802 8.71617 15.4114 9.55661 15.4114C10.3852 15.4114 10.9416 15.9796 10.9416 16.8733V22.5433H13.3859V16.9917C13.3859 16.0506 13.9245 15.4114 14.8419 15.4114C15.6468 15.4114 16.2505 15.9145 16.2505 16.9266V22.5433H18.7659V16.4294C18.7659 14.4585 17.594 13.334 15.9013 13.334C14.5696 13.334 13.5339 14.0146 13.161 15.0563H13.0663C12.7763 14.0028 11.8471 13.334 10.5983 13.334C9.37313 13.334 8.44392 13.985 8.06513 15.0563H7.9586V13.4524H5.55566V22.5433Z" fill="#03565C"/>
<path d="M22.477 26.1118C24.5169 26.1118 25.598 25.1316 26.1578 23.6312L29.9995 13.3461L27.0973 13.334L25.0317 20.1585H24.9287L22.8824 13.334H19.9995L23.5452 22.8931L23.3843 23.2864C23.024 24.1576 22.3354 24.1999 21.3702 23.9216L20.7524 25.8456C21.1449 26.0029 21.782 26.1118 22.477 26.1118Z" fill="#03565C"/>
</g>
<path d="M41.9442 34.4451C43.6362 34.4451 44.9998 33.0777 44.9998 31.3895C44.9998 29.7013 43.6324 28.334 41.9442 28.334C40.256 28.334 38.8887 29.7013 38.8887 31.3895C38.8887 33.0777 40.256 34.4451 41.9442 34.4451ZM41.9442 33.6392C40.7029 33.6392 39.6984 32.6309 39.6984 31.3895C39.6984 30.1482 40.7029 29.1399 41.9442 29.1399C43.1894 29.1399 44.1939 30.1482 44.1939 31.3895C44.1939 32.6347 43.1894 33.6392 41.9442 33.6392ZM40.8404 32.7645H41.5737V31.8173H42.0435L42.4789 32.7645H43.281L42.7463 31.6798C43.0175 31.527 43.197 31.2559 43.197 30.8777C43.197 30.2857 42.754 29.9458 42.2192 29.9458H40.8404V32.7645ZM41.5737 31.2864V30.4882H42.0359C42.2421 30.4882 42.4255 30.5989 42.4255 30.8777C42.4255 31.1489 42.246 31.2864 42.0321 31.2864H41.5737Z" fill="white"/>
<path d="M39.9233 22.1309V13.6091H45.4259V14.863H41.4816V17.2491H44.6711V18.4787H41.4816V22.1309H39.9233ZM47.4319 15.1552C47.1479 15.1552 46.9125 15.07 46.7259 14.8996C46.5473 14.7291 46.458 14.514 46.458 14.2543C46.458 13.9946 46.5473 13.7836 46.7259 13.6213C46.9125 13.4509 47.1479 13.3656 47.4319 13.3656C47.716 13.3656 47.9473 13.4509 48.1259 13.6213C48.3125 13.7836 48.4059 13.9946 48.4059 14.2543C48.4059 14.514 48.3125 14.7291 48.1259 14.8996C47.9473 15.07 47.716 15.1552 47.4319 15.1552ZM46.6528 22.1309V16.0926H48.2111V22.1309H46.6528ZM49.8375 22.1309V16.0926H51.2132L51.3349 17.1152C51.5216 16.7581 51.7894 16.474 52.1384 16.263C52.4955 16.052 52.9135 15.9465 53.3923 15.9465C54.139 15.9465 54.7193 16.1819 55.1332 16.6526C55.5471 17.1233 55.754 17.8132 55.754 18.7222V22.1309H54.1958V18.8683C54.1958 18.3488 54.0903 17.9511 53.8793 17.6752C53.6682 17.3993 53.3396 17.2613 52.8932 17.2613C52.4549 17.2613 52.0938 17.4155 51.8097 17.7239C51.5338 18.0323 51.3958 18.4625 51.3958 19.0143V22.1309H49.8375ZM59.3259 22.2769C58.8064 22.2769 58.3803 22.1958 58.0476 22.0335C57.7148 21.863 57.4673 21.6398 57.305 21.3639C57.1427 21.088 57.0615 20.7836 57.0615 20.4509C57.0615 19.8909 57.2806 19.4364 57.7189 19.0874C58.1572 18.7384 58.8145 18.5639 59.6911 18.5639H61.225V18.4178C61.225 18.0039 61.1073 17.6996 60.8719 17.5048C60.6366 17.31 60.3444 17.2126 59.9954 17.2126C59.6789 17.2126 59.403 17.2897 59.1676 17.4439C58.9322 17.59 58.7861 17.8091 58.7293 18.1013H57.2076C57.2482 17.663 57.3943 17.2816 57.6459 16.9569C57.9056 16.6323 58.2383 16.3848 58.6441 16.2143C59.0499 16.0358 59.5044 15.9465 60.0076 15.9465C60.8679 15.9465 61.5456 16.1616 62.0406 16.5917C62.5357 17.0219 62.7832 17.6306 62.7832 18.4178V22.1309H61.4563L61.3102 21.1569C61.1316 21.4816 60.8801 21.7494 60.5554 21.9604C60.2389 22.1714 59.829 22.2769 59.3259 22.2769ZM59.6789 21.0596C60.1253 21.0596 60.4702 20.9135 60.7137 20.6213C60.9653 20.3291 61.1235 19.968 61.1885 19.5378H59.8615C59.4476 19.5378 59.1514 19.6149 58.9728 19.7691C58.7943 19.9152 58.705 20.0978 58.705 20.3169C58.705 20.5523 58.7943 20.7349 58.9728 20.8648C59.1514 20.9946 59.3867 21.0596 59.6789 21.0596ZM64.2703 22.1309V13.3656H65.8285V22.1309H64.2703ZM68.1755 24.8091L69.5755 21.7291H69.2103L66.8607 16.0926H68.5529L70.2451 20.3413L72.0103 16.0926H73.666L69.8312 24.8091H68.1755ZM76.8831 22.2769C76.3475 22.2769 75.8767 22.1917 75.4709 22.0213C75.0651 21.8427 74.7405 21.5993 74.497 21.2909C74.2535 20.9825 74.1075 20.6254 74.0588 20.2196H75.6292C75.6779 20.4549 75.8077 20.6578 76.0188 20.8283C76.2379 20.9906 76.5179 21.0717 76.8588 21.0717C77.1996 21.0717 77.4472 21.0027 77.6014 20.8648C77.7637 20.7268 77.8448 20.5685 77.8448 20.39C77.8448 20.1303 77.7312 19.9558 77.504 19.8665C77.2767 19.7691 76.9602 19.6758 76.5544 19.5865C76.2947 19.5297 76.0309 19.4607 75.7631 19.3796C75.4953 19.2984 75.2477 19.1969 75.0205 19.0752C74.8014 18.9454 74.6228 18.783 74.4848 18.5883C74.3469 18.3854 74.2779 18.1378 74.2779 17.8456C74.2779 17.31 74.4889 16.8596 74.9109 16.4943C75.3411 16.1291 75.9417 15.9465 76.7127 15.9465C77.4269 15.9465 77.995 16.1129 78.417 16.4456C78.8472 16.7784 79.1028 17.2369 79.184 17.8213H77.7109C77.6217 17.3749 77.2848 17.1517 76.7005 17.1517C76.4083 17.1517 76.1811 17.2085 76.0188 17.3222C75.8646 17.4358 75.7875 17.5778 75.7875 17.7483C75.7875 17.9268 75.9051 18.0688 76.1405 18.1743C76.3759 18.2798 76.6883 18.3772 77.0779 18.4665C77.4999 18.5639 77.8854 18.6735 78.2344 18.7952C78.5915 18.9088 78.8756 19.0833 79.0866 19.3187C79.2976 19.5459 79.4031 19.8746 79.4031 20.3048C79.4112 20.6781 79.3138 21.0149 79.1109 21.3152C78.908 21.6155 78.6159 21.8509 78.2344 22.0213C77.853 22.1917 77.4025 22.2769 76.8831 22.2769ZM83.2837 22.1309C82.6507 22.1309 82.1434 21.9767 81.762 21.6683C81.3805 21.3598 81.1898 20.812 81.1898 20.0248V17.3952H80.155V16.0926H81.1898L81.3724 14.4735H82.7481V16.0926H84.3794V17.3952H82.7481V20.0369C82.7481 20.3291 82.8089 20.532 82.9307 20.6456C83.0605 20.7511 83.2797 20.8039 83.5881 20.8039H84.3429V22.1309H83.2837Z" fill="white"/>
</svg>
