<svg width="86" height="35" viewBox="0 0 86 35" fill="none" xmlns="http://www.w3.org/2000/svg">
<mask id="mask0_3415_20116" style="mask-type:alpha" maskUnits="userSpaceOnUse" x="0" y="0" width="35" height="35">
<rect width="35" height="35" rx="7.6087" fill="#03565C"/>
</mask>
<g mask="url(#mask0_3415_20116)">
<rect width="35" height="35" rx="7.6087" fill="#03565C"/>
<path d="M5.55566 22.5423H8.07697V17.0854C8.07697 16.0792 8.71617 15.4104 9.55661 15.4104C10.3852 15.4104 10.9416 15.9786 10.9416 16.8723V22.5423H13.3859V16.9907C13.3859 16.0496 13.9245 15.4104 14.8419 15.4104C15.6468 15.4104 16.2505 15.9135 16.2505 16.9256V22.5423H18.7659V16.4284C18.7659 14.4575 17.594 13.333 15.9013 13.333C14.5696 13.333 13.5339 14.0136 13.161 15.0553H13.0663C12.7763 14.0018 11.8471 13.333 10.5983 13.333C9.37313 13.333 8.44392 13.984 8.06513 15.0553H7.9586V13.4514H5.55566V22.5423Z" fill="white"/>
<path d="M22.477 26.1108C24.5169 26.1108 25.598 25.1307 26.1578 23.6303L29.9995 13.3451L27.0973 13.333L25.0317 20.1575H24.9287L22.8824 13.333H19.9995L23.5452 22.8921L23.3843 23.2854C23.024 24.1566 22.3354 24.199 21.3702 23.9207L20.7524 25.8446C21.1449 26.0019 21.782 26.1108 22.477 26.1108Z" fill="white"/>
</g>
<path d="M41.9442 34.4446C43.6362 34.4446 44.9998 33.0772 44.9998 31.3891C44.9998 29.7009 43.6324 28.3335 41.9442 28.3335C40.256 28.3335 38.8887 29.7009 38.8887 31.3891C38.8887 33.0772 40.256 34.4446 41.9442 34.4446ZM41.9442 33.6387C40.7029 33.6387 39.6984 32.6304 39.6984 31.3891C39.6984 30.1477 40.7029 29.1394 41.9442 29.1394C43.1894 29.1394 44.1939 30.1477 44.1939 31.3891C44.1939 32.6342 43.1894 33.6387 41.9442 33.6387ZM40.8404 32.7641H41.5737V31.8168H42.0435L42.479 32.7641H43.281L42.7463 31.6793C43.0175 31.5266 43.197 31.2554 43.197 30.8772C43.197 30.2852 42.754 29.9453 42.2192 29.9453H40.8404V32.7641ZM41.5737 31.2859V30.4877H42.0359C42.2421 30.4877 42.4255 30.5984 42.4255 30.8772C42.4255 31.1484 42.246 31.2859 42.0321 31.2859H41.5737Z" fill="#03565C"/>
<path d="M39.9233 22.1304V13.6086H45.4259V14.8625H41.4816V17.2486H44.6711V18.4782H41.4816V22.1304H39.9233ZM47.4319 15.1547C47.1479 15.1547 46.9125 15.0695 46.7259 14.8991C46.5473 14.7286 46.458 14.5136 46.458 14.2538C46.458 13.9941 46.5473 13.7831 46.7259 13.6208C46.9125 13.4504 47.1479 13.3652 47.4319 13.3652C47.716 13.3652 47.9473 13.4504 48.1259 13.6208C48.3125 13.7831 48.4059 13.9941 48.4059 14.2538C48.4059 14.5136 48.3125 14.7286 48.1259 14.8991C47.9473 15.0695 47.716 15.1547 47.4319 15.1547ZM46.6528 22.1304V16.0921H48.2111V22.1304H46.6528ZM49.8375 22.1304V16.0921H51.2132L51.3349 17.1147C51.5216 16.7576 51.7894 16.4736 52.1384 16.2625C52.4955 16.0515 52.9135 15.946 53.3923 15.946C54.139 15.946 54.7193 16.1814 55.1332 16.6521C55.5471 17.1228 55.754 17.8127 55.754 18.7217V22.1304H54.1958V18.8678C54.1958 18.3483 54.0903 17.9507 53.8793 17.6747C53.6682 17.3988 53.3396 17.2608 52.8932 17.2608C52.4549 17.2608 52.0938 17.415 51.8097 17.7234C51.5338 18.0318 51.3958 18.462 51.3958 19.0138V22.1304H49.8375ZM59.3259 22.2765C58.8064 22.2765 58.3803 22.1953 58.0476 22.033C57.7148 21.8625 57.4673 21.6394 57.305 21.3634C57.1427 21.0875 57.0615 20.7831 57.0615 20.4504C57.0615 19.8904 57.2806 19.4359 57.7189 19.0869C58.1572 18.7379 58.8145 18.5634 59.6911 18.5634H61.225V18.4173C61.225 18.0034 61.1073 17.6991 60.8719 17.5043C60.6366 17.3095 60.3444 17.2121 59.9954 17.2121C59.6789 17.2121 59.403 17.2892 59.1676 17.4434C58.9322 17.5895 58.7861 17.8086 58.7293 18.1008H57.2076C57.2482 17.6625 57.3943 17.2811 57.6459 16.9565C57.9056 16.6318 58.2383 16.3843 58.6441 16.2138C59.0499 16.0353 59.5044 15.946 60.0076 15.946C60.8679 15.946 61.5456 16.1611 62.0406 16.5912C62.5357 17.0214 62.7832 17.6301 62.7832 18.4173V22.1304H61.4563L61.3102 21.1565C61.1316 21.4811 60.8801 21.7489 60.5554 21.9599C60.2389 22.171 59.829 22.2765 59.3259 22.2765ZM59.6789 21.0591C60.1253 21.0591 60.4702 20.913 60.7137 20.6208C60.9653 20.3286 61.1235 19.9675 61.1885 19.5373H59.8615C59.4476 19.5373 59.1514 19.6144 58.9728 19.7686C58.7943 19.9147 58.705 20.0973 58.705 20.3165C58.705 20.5518 58.7943 20.7344 58.9728 20.8643C59.1514 20.9941 59.3867 21.0591 59.6789 21.0591ZM64.2703 22.1304V13.3652H65.8285V22.1304H64.2703ZM68.1755 24.8086L69.5755 21.7286H69.2103L66.8607 16.0921H68.5529L70.2451 20.3408L72.0103 16.0921H73.666L69.8312 24.8086H68.1755ZM76.8831 22.2765C76.3475 22.2765 75.8767 22.1912 75.4709 22.0208C75.0651 21.8423 74.7405 21.5988 74.497 21.2904C74.2535 20.982 74.1075 20.6249 74.0588 20.2191H75.6292C75.6779 20.4544 75.8077 20.6573 76.0188 20.8278C76.2379 20.9901 76.5179 21.0712 76.8588 21.0712C77.1996 21.0712 77.4472 21.0023 77.6014 20.8643C77.7637 20.7263 77.8448 20.5681 77.8448 20.3895C77.8448 20.1298 77.7312 19.9553 77.504 19.866C77.2767 19.7686 76.9602 19.6753 76.5544 19.586C76.2947 19.5292 76.0309 19.4602 75.7631 19.3791C75.4953 19.2979 75.2477 19.1965 75.0205 19.0747C74.8014 18.9449 74.6228 18.7825 74.4848 18.5878C74.3469 18.3849 74.2779 18.1373 74.2779 17.8452C74.2779 17.3095 74.4889 16.8591 74.9109 16.4938C75.3411 16.1286 75.9417 15.946 76.7127 15.946C77.4269 15.946 77.995 16.1124 78.417 16.4452C78.8472 16.7779 79.1028 17.2365 79.184 17.8208H77.7109C77.6217 17.3744 77.2848 17.1512 76.7005 17.1512C76.4083 17.1512 76.1811 17.2081 76.0188 17.3217C75.8646 17.4353 75.7875 17.5773 75.7875 17.7478C75.7875 17.9263 75.9051 18.0683 76.1405 18.1738C76.3759 18.2794 76.6883 18.3767 77.0779 18.466C77.4999 18.5634 77.8854 18.673 78.2344 18.7947C78.5915 18.9083 78.8756 19.0828 79.0866 19.3182C79.2976 19.5454 79.4031 19.8741 79.4031 20.3043C79.4112 20.6776 79.3138 21.0144 79.1109 21.3147C78.908 21.615 78.6159 21.8504 78.2344 22.0208C77.853 22.1912 77.4025 22.2765 76.8831 22.2765ZM83.2837 22.1304C82.6507 22.1304 82.1434 21.9762 81.762 21.6678C81.3805 21.3594 81.1898 20.8115 81.1898 20.0243V17.3947H80.155V16.0921H81.1898L81.3724 14.473H82.7481V16.0921H84.3794V17.3947H82.7481V20.0365C82.7481 20.3286 82.8089 20.5315 82.9307 20.6452C83.0605 20.7507 83.2797 20.8034 83.5881 20.8034H84.3429V22.1304H83.2837Z" fill="#03565C"/>
</svg>
