<svg width="41" height="41" viewBox="0 0 41 41" fill="none" xmlns="http://www.w3.org/2000/svg">
<circle cx="20.5" cy="20.5" r="20.5" fill="#03565a"/>
<path d="M21 21C21.5523 21 22 20.5523 22 20C22 19.4477 21.5523 19 21 19C20.4477 19 20 19.4477 20 20C20 20.5523 20.4477 21 21 21Z" stroke="white" stroke-width="2" stroke-linecap="round" stroke-linejoin="round"/>
<path d="M21 14C21.5523 14 22 13.5523 22 13C22 12.4477 21.5523 12 21 12C20.4477 12 20 12.4477 20 13C20 13.5523 20.4477 14 21 14Z" stroke="white" stroke-width="2" stroke-linecap="round" stroke-linejoin="round"/>
<path d="M21 28C21.5523 28 22 27.5523 22 27C22 26.4477 21.5523 26 21 26C20.4477 26 20 26.4477 20 27C20 27.5523 20.4477 28 21 28Z" stroke="white" stroke-width="2" stroke-linecap="round" stroke-linejoin="round"/>
</svg>